<?xml version="1.0" standalone="no"?>
<!DOCTYPE svg PUBLIC "-//W3C//DTD SVG 20010904//EN"
 "http://www.w3.org/TR/2001/REC-SVG-20010904/DTD/svg10.dtd">
<svg version="1.0" xmlns="http://www.w3.org/2000/svg"
 width="165.000000pt" height="180.000000pt" viewBox="0 0 165.000000 180.000000"
 preserveAspectRatio="xMidYMid meet">

<g transform="translate(0.000000,180.000000) scale(0.100000,-0.100000)"
fill="#000000" stroke="none">
<path d="M655 1703 c-263 -56 -498 -255 -594 -503 -160 -414 23 -874 422
-1060 156 -73 375 -96 537 -56 280 69 500 270 596 544 12 35 24 66 28 69 9 9
7 393 -2 393 -5 0 -14 22 -21 49 -41 163 -181 347 -340 450 -178 115 -419 159
-626 114z m-16 -665 c1 -330 -1 -378 -14 -378 -13 0 -15 46 -15 358 0 198 3
395 7 438 l8 79 6 -60 c4 -33 7 -230 8 -437z m213 464 c16 -26 16 -29 0 -40
-16 -12 -16 -13 0 -8 9 3 19 -2 22 -11 9 -23 -3 -53 -22 -54 -15 -1 -14 -2 1
-6 10 -3 17 -8 15 -11 -2 -4 -10 -19 -17 -34 -19 -37 -54 -36 -91 1 -33 33
-45 69 -36 107 9 36 59 84 88 84 15 0 30 -10 40 -28z m214 -132 c10 -30 22
-56 27 -58 4 -2 7 -19 7 -38 0 -19 5 -34 10 -34 6 0 10 -22 10 -50 0 -27 5
-50 10 -50 6 0 10 -28 10 -65 0 -37 4 -65 10 -65 6 0 10 -65 10 -175 l0 -175
-125 0 -125 0 0 74 0 74 -40 32 -40 32 -40 -32 -40 -32 0 -74 c0 -72 -1 -74
-25 -74 l-25 0 0 290 c0 160 4 290 9 290 8 0 21 -116 21 -192 0 -21 5 -38 10
-38 6 0 10 -19 10 -42 l0 -43 80 0 80 0 0 43 c0 23 5 42 10 42 6 0 10 28 10
65 0 37 4 65 10 65 6 0 10 23 10 50 0 28 5 50 10 50 6 0 10 15 10 34 0 19 3
36 8 38 14 6 52 133 53 178 l2 45 6 -55 c4 -30 16 -80 27 -110z m-163 122 c21
-19 22 -31 1 -28 -17 3 -44 33 -44 49 0 9 16 1 43 -21z m35 -69 c-2 -21 -9
-29 -28 -31 -22 -2 -25 1 -25 28 0 26 3 30 28 30 25 0 28 -3 25 -27z m-18 -52
c0 -11 -51 -53 -57 -47 -2 2 2 15 8 30 11 24 49 37 49 17z m-250 -43 c0 -10 5
-18 10 -18 6 0 10 -115 10 -325 0 -303 -1 -325 -17 -325 -17 0 -18 24 -18 354
0 195 3 349 7 343 4 -7 8 -20 8 -29z m-80 -323 c0 -300 -2 -345 -15 -345 -13
0 -15 43 -15 325 0 210 4 325 10 325 6 0 10 9 10 20 0 11 2 20 5 20 3 0 5
-155 5 -345z m-40 -55 l0 -290 -25 0 -25 0 0 175 c0 110 4 175 10 175 6 0 10
17 10 38 0 76 13 192 21 192 5 0 9 -130 9 -290z m126 -510 c24 -85 44 -158 44
-162 0 -5 -14 -8 -30 -8 -26 0 -31 5 -36 30 -6 28 -10 30 -49 30 -40 0 -44 -2
-50 -30 -5 -25 -11 -30 -36 -30 -16 0 -29 3 -29 8 0 4 20 77 45 162 25 85 45
156 45 158 0 2 12 2 27 0 25 -3 28 -10 69 -158z m222 127 c3 -26 2 -28 -17
-18 -28 15 -69 4 -77 -22 -5 -16 6 -32 55 -77 52 -48 61 -61 61 -91 0 -19 -7
-44 -15 -56 -35 -50 -155 -48 -155 2 0 29 1 29 35 13 19 -8 31 -8 50 0 43 20
33 52 -35 111 -52 45 -60 57 -60 87 0 24 8 43 25 60 22 21 33 25 78 22 49 -3
52 -5 55 -31z m223 4 c24 -30 25 -95 2 -118 -17 -17 -17 -19 5 -40 37 -37 24
-110 -25 -132 -13 -6 -48 -11 -78 -11 l-55 0 0 166 0 166 66 -4 c55 -3 70 -8
85 -27z"/>
<path d="M775 1495 c-28 -23 -29 -24 -8 -25 13 0 27 9 33 21 17 30 8 31 -25 4z"/>
<path d="M816 1494 c-8 -21 -8 -24 3 -24 12 0 22 28 12 35 -5 3 -12 -2 -15
-11z"/>
<path d="M740 1420 c0 -23 4 -30 20 -30 16 0 20 7 20 30 0 23 -4 30 -20 30
-16 0 -20 -7 -20 -30z"/>
<path d="M800 1420 c0 -33 24 -42 32 -12 7 24 -1 42 -18 42 -9 0 -14 -11 -14
-30z"/>
<path d="M769 1350 c30 -26 45 -26 31 0 -6 11 -21 20 -33 20 l-22 -1 24 -19z"/>
<path d="M810 1363 c0 -5 4 -14 9 -21 6 -10 10 -9 14 7 3 14 0 21 -9 21 -8 0
-14 -3 -14 -7z"/>
<path d="M750 850 c0 -17 3 -19 19 -10 32 16 34 30 7 30 -19 0 -26 -5 -26 -20z"/>
<path d="M875 850 c10 -11 22 -20 27 -20 4 0 8 9 8 20 0 15 -7 20 -27 20 -25
0 -26 0 -8 -20z"/>
<path d="M592 452 c-17 -75 -16 -82 13 -82 28 0 29 8 11 85 l-11 50 -13 -53z"/>
<path d="M1030 510 c0 -42 3 -50 19 -50 35 0 44 72 12 90 -30 15 -31 14 -31
-40z"/>
<path d="M1030 365 c0 -58 5 -63 34 -42 26 19 18 77 -11 88 -22 8 -23 6 -23
-46z"/>
</g>
</svg>
